# xmcd
#
# Track frame offsets: 
#        150
#        27563
#        48842
#        73288
#        96167
#        102956
#        128190
#        135812
#        145624
#        161232
#        177943
#        199509
#        222766
#        243183
#        263801
#        296213
#        317088
#
# Disc length: 4464 seconds
#
# Revision: 0
# Processed by: cddbd v1.4PL0 Copyright (c) Steve Scherf et al.
# Submitted via: ExactAudioCopy v0.90b4
#
DISCID=fa116e11
DTITLE=Santana - The Best of Instrumental Works
DYEAR=1999
DGENRE=Blues
TTITLE0=Song of the Wind ['72]
TTITLE1=Samba Pa Ti ['73]
TTITLE2=Take Me with You ['76]
TTITLE3=Europa (Earth's Cry Heaven's Smile) ['76]
TTITLE4=Marathon ['79]
TTITLE5=Aqua Marine ['79]
TTITLE6=Runnin ['79]
TTITLE7=Primera Invasion ['81]
TTITLE8=Tales of Kilimanjaro ['81]
TTITLE9=American Gipsy ['81]
TTITLE10=I Love You Too Much ['81]
TTITLE11=Soweto (Africa Libre) ['90]
TTITLE12=Full Moon ['90]
TTITLE13=Goodness And Mercy ['90]
TTITLE14=Gypsy | Grajonca ['92]
TTITLE15=We don't Have to Wait ['92]
TTITLE16=El Farol ['99]
EXTD=
EXTT0=
EXTT1=
EXTT2=
EXTT3=
EXTT4=
EXTT5=
EXTT6=
EXTT7=
EXTT8=
EXTT9=
EXTT10=
EXTT11=
EXTT12=
EXTT13=
EXTT14=
EXTT15=
EXTT16=
PLAYORDER=
